<!-- icon666.com - MILLIONS vector ICONS FREE --><svg id="Layer_1" enable-background="new 0 0 66 66" viewBox="0 0 66 66" xmlns="http://www.w3.org/2000/svg"><g><path d="m42.52 33.6v-25.89c0-3.56-2.9-6.46-6.46-6.46s-6.46 2.9-6.46 6.46v25.89c-5.96 2.58-9.79 8.38-9.79 14.9 0 8.96 7.29 16.25 16.25 16.25 4.48 0 8.8-1.88 11.86-5.15.28-.3.27-.78-.03-1.06s-.78-.27-1.06.03c-2.78 2.97-6.71 4.67-10.77 4.67-8.13 0-14.75-6.62-14.75-14.75 0-6.08 3.66-11.46 9.32-13.7.29-.11.47-.39.47-.7v-26.38c0-2.73 2.23-4.96 4.96-4.96s4.96 2.22 4.96 4.96v26.39c0 .31.19.58.47.7 5.66 2.25 9.32 7.63 9.32 13.7 0 2.82-.8 5.57-2.32 7.94-.22.35-.12.81.23 1.04.35.22.81.12 1.04-.23 1.67-2.61 2.55-5.64 2.55-8.75 0-6.53-3.83-12.32-9.79-14.9z" fill="#000000" style="fill: rgb(255, 255, 255);"></path><path d="m45.91 12.97h3.85c.41 0 .75-.34.75-.75s-.34-.75-.75-.75h-3.85c-.41 0-.75.34-.75.75s.34.75.75.75z" fill="#000000" style="fill: rgb(255, 255, 255);"></path><path d="m45.91 17.37h3.85c.41 0 .75-.34.75-.75s-.34-.75-.75-.75h-3.85c-.41 0-.75.34-.75.75s.34.75.75.75z" fill="#000000" style="fill: rgb(255, 255, 255);"></path><path d="m45.91 21.76h3.85c.41 0 .75-.34.75-.75s-.34-.75-.75-.75h-3.85c-.41 0-.75.34-.75.75s.34.75.75.75z" fill="#000000" style="fill: rgb(255, 255, 255);"></path><path d="m45.91 26.15h3.85c.41 0 .75-.34.75-.75s-.34-.75-.75-.75h-3.85c-.41 0-.75.34-.75.75s.34.75.75.75z" fill="#000000" style="fill: rgb(255, 255, 255);"></path><path d="m45.91 30.55h3.85c.41 0 .75-.34.75-.75s-.34-.75-.75-.75h-3.85c-.41 0-.75.34-.75.75s.34.75.75.75z" fill="#000000" style="fill: rgb(255, 255, 255);"></path><path d="m24.51 17.97c1.52 0 2.75-1.23 2.75-2.75s-1.23-2.75-2.75-2.75-2.75 1.23-2.75 2.75 1.23 2.75 2.75 2.75zm0-4c.69 0 1.25.56 1.25 1.25s-.56 1.25-1.25 1.25-1.25-.56-1.25-1.25.56-1.25 1.25-1.25z" fill="#000000" style="fill: rgb(255, 255, 255);"></path><path d="m25.21 30.94c.29-.29.29-.77 0-1.06s-.77-.29-1.06 0c-.99.99-2.31 1.54-3.71 1.54s-2.72-.55-3.71-1.54c-2.05-2.05-2.05-5.37 0-7.42.99-.99 2.31-1.54 3.71-1.54s2.72.55 3.71 1.54c.29.29.77.29 1.06 0s.29-.77 0-1.06c-1.27-1.27-2.97-1.98-4.77-1.98s-3.5.7-4.77 1.98c-1.27 1.27-1.98 2.97-1.98 4.77s.7 3.5 1.98 4.77c1.27 1.27 2.97 1.98 4.77 1.98s3.49-.7 4.77-1.98z" fill="#000000" style="fill: rgb(255, 255, 255);"></path><path d="m29.62 42.18c-.32-.26-.79-.22-1.06.1-1.45 1.75-2.26 3.96-2.26 6.23 0 5.38 4.37 9.75 9.75 9.75s9.75-4.37 9.75-9.75c0-4.3-2.91-8.14-7-9.35v-28.88c0-1.52-1.23-2.75-2.75-2.75s-2.75 1.23-2.75 2.75v28.87c-.93.27-1.81.68-2.62 1.22-.35.23-.44.69-.21 1.04.14.22.38.34.63.34.14 0 .29-.04.41-.12.83-.55 1.74-.94 2.71-1.16.34-.08.58-.38.58-.73v-17.77h2.5v17.76c0 .35.24.65.58.73 3.72.85 6.42 4.23 6.42 8.04 0 4.55-3.7 8.25-8.25 8.25s-8.25-3.7-8.25-8.25c0-1.92.68-3.79 1.91-5.27.27-.31.23-.79-.09-1.05zm5.19-31.9c0-.69.56-1.25 1.25-1.25s1.25.56 1.25 1.25v10.19h-2.5z" fill="#000000" style="fill: rgb(255, 255, 255);"></path></g></svg>