<?xml version="1.0" standalone="no"?>
<!DOCTYPE svg PUBLIC "-//W3C//DTD SVG 20010904//EN"
 "http://www.w3.org/TR/2001/REC-SVG-20010904/DTD/svg10.dtd">
<svg version="1.0" xmlns="http://www.w3.org/2000/svg"
 width="887.000000pt" height="1280.000000pt" viewBox="0 0 887.000000 1280.000000"
 preserveAspectRatio="xMidYMid meet">
<metadata>
Created by potrace 1.15, written by Peter Selinger 2001-2017
</metadata>
<g transform="translate(0.000000,1280.000000) scale(0.100000,-0.100000)"
fill="#2196f3" stroke="none">
<path d="M1372 12788 c-12 -16 -232 -514 -232 -527 0 -19 33 -28 74 -20 22 5
53 8 69 9 l27 0 -21 -41 -21 -42 34 7 c80 15 251 18 324 7 41 -7 77 -11 80 -9
7 8 -209 488 -217 482 -4 -2 -24 29 -43 71 -34 73 -52 89 -74 63z"/>
<path d="M7732 12558 c-8 -8 -12 -49 -12 -120 l0 -108 -100 -65 c-55 -36 -100
-71 -100 -80 0 -18 30 -37 97 -61 39 -13 50 -21 42 -30 -7 -9 3 -16 39 -28 47
-16 50 -19 61 -64 31 -126 41 -152 60 -152 11 0 30 13 44 30 l25 29 7 -27 c3
-15 11 -44 16 -65 l10 -39 71 92 72 91 115 -7 115 -7 -15 24 c-9 13 -37 58
-62 100 l-47 77 40 98 c22 53 38 99 36 102 -3 2 -28 -3 -56 -11 -57 -17 -57
-18 -24 62 8 18 14 44 14 57 0 31 -22 31 -131 -1 -46 -13 -91 -25 -101 -25 -9
0 -54 31 -100 70 -87 73 -96 78 -116 58z"/>
<path d="M691 12476 c-8 -10 -6 -62 10 -207 20 -190 30 -239 47 -239 5 0 26
11 47 25 20 15 39 24 41 22 3 -2 7 -27 11 -56 3 -28 7 -51 8 -51 1 0 33 21 71
46 38 26 99 61 137 79 l67 31 -46 33 c-30 22 -42 36 -34 41 28 18 -5 51 -163
167 -93 68 -172 123 -177 123 -4 0 -13 -6 -19 -14z"/>
<path d="M1898 12367 c-198 -145 -201 -150 -103 -196 36 -16 65 -34 65 -40 0
-5 28 -23 63 -40 139 -70 187 -103 187 -129 0 -8 18 -36 40 -62 58 -69 119
-174 155 -265 24 -62 36 -81 53 -83 13 -2 26 5 34 17 7 12 16 21 19 21 4 0 15
-22 25 -50 10 -27 21 -50 24 -50 3 0 40 46 81 103 41 56 112 153 158 216 l83
114 -72 -7 -73 -7 30 38 c63 80 63 103 0 102 -23 0 -150 -13 -282 -28 -132
-15 -243 -26 -246 -25 -3 2 3 80 14 174 10 94 17 174 14 177 -3 3 -21 -7 -41
-22 l-35 -27 2 93 c2 76 -1 94 -13 96 -8 1 -90 -53 -182 -120z"/>
<path d="M1305 12104 c-438 -62 -742 -405 -738 -834 2 -229 94 -444 255 -596
105 -100 327 -230 453 -266 117 -33 327 -33 435 0 229 72 395 211 499 419 90
180 105 414 39 607 -32 93 -65 154 -177 320 -103 154 -281 276 -476 326 -78
20 -230 33 -290 24z"/>
<path d="M74 12035 c-3 -8 -2 -20 2 -27 32 -54 330 -451 341 -455 7 -3 20 0
27 6 11 10 21 3 47 -34 l33 -46 26 68 c32 84 87 179 146 255 24 31 44 59 44
62 0 3 -17 6 -37 6 -21 0 -48 3 -61 6 -22 6 -22 6 8 41 32 36 37 57 18 69 -12
8 -499 63 -556 64 -19 0 -35 -6 -38 -15z"/>
<path d="M5470 11935 c-154 -32 -249 -84 -361 -195 -72 -71 -93 -101 -132
-180 -138 -283 -85 -595 140 -811 57 -56 190 -147 281 -193 157 -79 344 -92
514 -36 191 64 365 245 422 439 9 30 16 58 16 62 0 4 -21 1 -47 -7 -25 -8 -48
-12 -50 -11 -2 2 4 23 12 47 17 48 20 96 5 105 -5 3 -35 -2 -66 -11 -41 -12
-83 -15 -153 -12 -86 3 -105 8 -172 40 -152 72 -203 154 -203 328 0 100 20
173 68 253 33 54 33 55 12 61 -11 3 -38 6 -58 6 l-38 0 30 47 c26 40 28 49 16
61 -20 20 -157 24 -236 7z"/>
<path d="M6853 11812 c-7 -4 -15 -47 -19 -101 l-7 -94 -74 -46 c-61 -38 -73
-50 -71 -70 3 -20 15 -28 75 -49 57 -20 70 -28 62 -38 -8 -10 -5 -15 14 -19
21 -6 28 -18 44 -78 25 -91 44 -105 83 -58 l29 34 11 -44 c22 -88 20 -88 80
-11 l55 70 88 -5 c48 -3 87 -3 87 0 0 4 -21 38 -46 77 l-46 71 31 77 c17 42
31 80 31 84 0 4 -23 0 -51 -8 -28 -9 -53 -14 -55 -11 -2 2 8 32 22 67 22 55
24 65 11 77 -13 13 -26 12 -103 -9 l-89 -25 -69 59 c-74 62 -74 62 -93 50z"/>
<path d="M8194 11632 c-7 -4 -30 -63 -51 -132 l-40 -125 -118 -37 c-122 -39
-150 -54 -140 -79 3 -8 53 -47 110 -87 l105 -73 0 -138 c0 -163 3 -168 80
-115 l52 36 -4 -66 c-1 -36 -2 -66 0 -66 1 0 50 36 108 79 l106 80 124 -44
c68 -24 124 -40 124 -36 0 4 -18 60 -40 125 -22 65 -37 124 -33 130 4 6 40 55
80 109 l74 97 -66 0 -66 0 31 45 c52 76 47 80 -115 83 l-140 3 -75 107 c-76
108 -86 117 -106 104z"/>
<path d="M220 11395 c-91 -40 -177 -80 -192 -89 -45 -25 -35 -44 42 -79 38
-18 68 -36 67 -42 -3 -7 198 -102 328 -155 19 -7 20 -4 20 150 l0 158 -27 -14
c-46 -24 -49 -20 -42 57 6 55 4 73 -7 80 -18 11 -2 17 -189 -66z"/>
<path d="M2375 11460 c-5 -8 -9 -286 -6 -357 1 -19 33 -16 87 7 l47 21 -6 -56
c-3 -30 -4 -55 -2 -55 1 0 83 36 181 79 l178 79 -59 27 c-55 25 -58 28 -38 37
28 13 35 32 20 51 -10 12 -372 177 -390 177 -3 0 -9 -4 -12 -10z"/>
<path d="M394 10978 c-22 -25 -278 -374 -309 -421 -16 -25 -17 -30 -3 -44 13
-13 29 -14 96 -6 87 10 86 11 44 -44 l-24 -33 43 6 c136 17 475 51 478 48 2
-2 -5 -90 -17 -195 -11 -105 -18 -198 -15 -205 8 -22 42 -16 82 14 59 47 58
47 49 -25 -4 -37 -7 -68 -5 -69 4 -4 302 215 305 225 1 4 -21 18 -50 30 -51
21 -51 22 -30 37 41 29 28 51 -53 88 -41 19 -108 58 -150 86 -42 30 -81 50
-89 47 -16 -6 -66 45 -66 67 0 7 -20 38 -44 70 -25 31 -59 92 -77 136 -20 48
-37 76 -44 74 -8 -3 -22 21 -37 63 -28 76 -50 89 -84 51z"/>
<path d="M2327 10968 c-28 -78 -110 -229 -162 -296 -31 -40 -55 -81 -53 -90 4
-19 40 -29 111 -31 51 -1 55 -5 31 -39 -8 -12 -12 -22 -7 -22 4 0 125 -13 268
-29 143 -16 261 -28 262 -27 1 1 -13 24 -32 51 -19 27 -35 52 -35 56 0 5 -75
110 -166 234 -177 241 -195 256 -217 193z"/>
<path d="M1961 10476 c-35 -25 -102 -64 -148 -86 -70 -34 -84 -45 -81 -62 2
-14 58 -62 163 -139 88 -65 164 -118 169 -119 5 0 31 -16 57 -35 58 -41 55
-58 29 175 -11 96 -20 176 -20 177 0 2 -11 -4 -24 -12 -21 -14 -24 -14 -30 0
-3 9 -6 33 -7 53 -1 53 -13 86 -30 90 -8 1 -43 -18 -78 -42z"/>
<path d="M1150 10305 c-11 -13 5 -56 100 -273 62 -141 118 -263 124 -270 16
-16 41 -7 54 21 9 20 12 17 36 -37 15 -32 28 -57 30 -55 8 9 216 492 214 494
-2 2 -25 -1 -52 -6 -27 -5 -51 -7 -53 -6 -2 2 6 25 18 51 11 26 19 57 17 69
-3 25 -2 25 -151 10 -90 -9 -222 -4 -298 12 -17 4 -30 0 -39 -10z"/>
<path d="M3095 10250 c-239 -48 -439 -233 -511 -475 -10 -33 -19 -61 -20 -63
-1 -2 -23 11 -49 29 -125 84 -314 124 -465 96 -113 -20 -186 -49 -275 -108
-144 -96 -245 -247 -279 -413 -7 -34 -17 -61 -22 -60 -5 0 -38 14 -74 32 -92
44 -180 65 -285 65 -122 0 -192 -16 -304 -70 -175 -84 -308 -249 -358 -443
-21 -85 -21 -235 0 -320 45 -176 149 -314 320 -426 234 -154 382 -188 595
-137 l62 15 63 -65 c100 -103 309 -231 430 -263 63 -17 240 -18 305 -3 127 30
300 141 363 233 13 20 26 36 29 36 3 0 15 -18 28 -40 42 -75 144 -171 260
-247 180 -118 241 -138 422 -138 113 0 133 3 203 29 156 57 284 167 357 306
38 75 67 164 72 223 2 23 9 30 48 41 106 32 183 79 270 166 132 131 192 274
191 456 0 153 -32 245 -144 416 -88 134 -184 228 -284 279 l-68 34 -1 81 c-3
128 -35 218 -133 372 -128 204 -266 313 -451 356 -69 17 -227 19 -295 6z"/>
<path d="M6590 10170 c-746 -57 -1303 -256 -1428 -510 -57 -116 -26 -227 93
-338 75 -70 301 -206 416 -251 l84 -33 -3 -40 c-9 -90 68 -195 206 -279 40
-24 93 -56 117 -71 39 -24 147 -74 199 -92 18 -6 18 -7 -1 -29 -87 -94 -67
-220 48 -306 l45 -33 -80 -42 c-130 -67 -172 -142 -130 -232 9 -19 28 -43 42
-54 14 -11 23 -22 21 -23 -2 -2 -33 -14 -68 -27 -41 -15 -80 -39 -108 -65 -37
-36 -43 -47 -43 -83 0 -50 31 -91 99 -129 25 -14 67 -39 92 -54 107 -67 277
-101 499 -101 255 0 453 47 533 127 28 29 36 72 16 92 -14 14 -4 17 136 33
335 40 559 171 495 290 -12 22 -13 22 110 40 325 50 583 173 621 298 14 46 1
96 -35 140 -13 15 -33 47 -46 71 -12 24 -35 56 -52 71 l-29 27 93 46 c154 76
238 154 258 241 14 64 1 93 -112 265 -16 24 -28 44 -26 45 2 2 23 17 48 33 54
37 121 108 146 154 12 23 18 56 19 99 0 55 -5 72 -30 113 -16 27 -45 74 -63
105 -42 71 -71 103 -148 158 -222 159 -609 272 -1129 330 -165 18 -731 27
-905 14z"/>
<path d="M4700 7429 c-119 -7 -346 -35 -675 -81 -201 -29 -514 -30 -775 -2
-102 10 -255 19 -340 19 -134 0 -159 -3 -186 -19 -40 -24 -64 -65 -64 -109 0
-45 44 -92 103 -109 23 -6 51 -17 62 -24 53 -31 159 -38 600 -39 432 0 443 0
610 27 560 90 689 103 925 95 195 -7 406 -33 728 -87 339 -58 405 -53 405 30
0 26 -8 40 -36 64 -22 18 -37 40 -37 53 0 31 -44 78 -89 97 -82 32 -360 63
-786 86 -200 11 -263 11 -445 -1z"/>
<path d="M4725 6933 c-81 -10 -268 -49 -430 -89 -492 -122 -781 -138 -1282
-73 -481 62 -643 70 -713 34 -16 -8 -42 -32 -57 -52 -23 -30 -28 -46 -28 -95
0 -56 2 -62 36 -91 19 -18 49 -40 65 -50 16 -9 44 -27 63 -39 30 -19 46 -21
135 -20 1184 24 1288 31 1826 136 319 62 389 70 600 70 153 -1 235 -6 380 -27
294 -41 322 -42 343 -19 28 31 18 72 -23 100 -27 18 -34 29 -32 48 15 110
-246 176 -678 172 -96 0 -188 -3 -205 -5z"/>
<path d="M7865 6497 c-87 -34 -151 -93 -187 -172 l-23 -50 -3 -1042 -3 -1041
-58 -60 c-92 -94 -151 -237 -151 -362 1 -161 91 -338 217 -422 192 -129 253
-156 373 -165 291 -21 543 236 516 529 -10 106 -56 205 -173 373 l-28 40 -5
1020 -5 1020 -23 50 c-13 27 -31 59 -41 70 -10 11 -28 39 -40 62 -30 60 -96
120 -158 143 -60 22 -160 26 -208 7z"/>
<path d="M639 6490 c-99 -17 -183 -83 -228 -179 l-26 -56 -3 -1041 -3 -1040
-59 -61 c-156 -161 -192 -384 -94 -588 40 -85 95 -150 166 -197 212 -141 261
-160 398 -160 150 0 259 48 360 159 62 68 95 131 116 220 28 119 2 271 -64
368 -14 22 -42 65 -60 95 -18 30 -42 64 -52 75 -19 20 -20 54 -22 1045 l-3
1025 -23 45 c-49 99 -119 196 -166 231 -68 51 -155 73 -237 59z"/>
<path d="M4780 6383 c-169 -28 -233 -41 -401 -83 -449 -113 -579 -130 -1064
-139 -399 -7 -411 -9 -449 -63 -19 -27 -20 -86 -3 -109 17 -22 78 -59 98 -59
9 0 32 -15 51 -34 56 -54 103 -59 463 -53 359 6 545 22 920 79 217 32 308 41
462 45 244 7 333 -2 813 -83 535 -90 676 -96 730 -27 33 42 27 98 -14 139 -19
19 -37 48 -41 65 -9 39 -49 85 -94 108 -38 20 -190 57 -361 90 -58 11 -159 31
-225 45 -155 33 -335 62 -457 75 -92 10 -375 13 -428 4z"/>
<path d="M4435 5769 c-209 -28 -414 -122 -512 -233 l-38 -43 -111 5 c-116 5
-228 -6 -343 -34 l-68 -17 -79 32 c-162 63 -303 86 -483 78 -247 -11 -456 -90
-587 -221 -99 -99 -129 -163 -129 -276 0 -76 3 -92 33 -152 45 -92 146 -186
261 -242 l86 -42 -75 -45 c-46 -27 -112 -81 -171 -139 -84 -83 -102 -108 -142
-190 -99 -204 -84 -392 44 -584 62 -93 141 -166 271 -252 286 -188 482 -251
814 -261 l181 -6 17 -37 c32 -73 94 -156 167 -225 80 -76 281 -209 394 -261
445 -205 1042 -164 1420 97 88 61 200 177 236 243 13 25 29 44 36 42 25 -10
162 -35 243 -45 324 -41 699 39 948 201 304 199 417 505 283 770 -89 175 -170
284 -282 374 l-76 61 36 19 c73 39 152 106 195 164 197 267 11 577 -413 687
-72 19 -132 26 -240 30 -145 6 -145 6 -192 40 -163 116 -437 179 -677 155 -64
-7 -126 -15 -138 -18 -15 -4 -23 1 -31 18 -20 44 -94 117 -166 165 -82 55
-207 104 -322 128 -98 20 -295 27 -390 14z"/>
<path d="M3200 2705 c-18 -26 -39 -45 -50 -45 -10 0 -35 16 -56 35 -44 41 -75
44 -109 10 -33 -32 -31 -64 5 -110 17 -21 30 -43 30 -50 0 -15 -26 -38 -67
-59 -83 -42 -26 -162 60 -127 18 7 41 15 52 18 19 4 19 4 -1 -14 -12 -10 -36
-26 -53 -35 -34 -19 -41 -48 -16 -68 12 -10 25 -10 68 2 52 15 53 15 85 -12
22 -18 32 -35 32 -54 0 -40 17 -66 45 -66 32 0 40 15 40 77 0 73 17 88 103 88
l67 0 3 32 c3 30 1 33 -45 47 -26 8 -39 15 -28 15 83 3 98 127 18 146 -15 4
-39 20 -52 37 -23 29 -23 31 -8 58 36 61 8 120 -58 120 -29 0 -38 -6 -65 -45z"/>
<path d="M837 2697 c-14 -11 -558 -806 -584 -853 -11 -19 -10 -25 3 -38 9 -10
21 -13 29 -8 25 13 604 873 599 887 -8 20 -30 25 -47 12z"/>
<path d="M5635 2703 c-116 -26 -186 -98 -201 -206 -12 -89 40 -187 127 -236
25 -14 70 -41 100 -58 194 -116 400 119 260 297 -15 19 -36 52 -45 72 -26 54
-86 104 -147 122 -54 16 -60 17 -94 9z"/>
<path d="M1094 2272 c-160 -235 -294 -432 -297 -439 -10 -16 21 -45 39 -35 11
6 239 335 530 765 73 108 81 137 40 137 -17 0 -81 -88 -312 -428z"/>
<path d="M894 2632 c-8 -6 -477 -689 -568 -828 -28 -44 -27 -74 4 -74 23 0
613 861 608 887 -4 19 -27 27 -44 15z"/>
<path d="M1433 2618 c-47 -54 -577 -844 -577 -862 -1 -16 5 -21 23 -21 20 0
69 67 317 430 161 237 294 437 294 446 0 9 -7 20 -16 23 -21 8 -18 9 -41 -16z"/>
<path d="M8610 2598 c-36 -5 -170 -25 -298 -42 -128 -18 -234 -35 -236 -37 -2
-2 -187 -266 -411 -587 -236 -339 -405 -590 -403 -600 3 -14 17 -18 81 -20 42
-2 77 -6 77 -9 0 -3 -12 -21 -26 -40 -14 -19 -24 -36 -23 -38 2 -1 148 5 324
15 176 10 321 18 322 16 4 -4 -292 -445 -299 -446 -3 0 -14 24 -24 53 -9 28
-20 57 -24 62 -4 6 -17 40 -29 77 -18 53 -27 68 -42 68 -11 0 -24 -10 -29 -22
-5 -13 -34 -210 -64 -438 -50 -368 -54 -416 -41 -429 13 -13 20 -13 60 7 25
12 47 22 49 22 2 0 -1 -25 -6 -56 -5 -31 -7 -59 -4 -61 2 -2 163 76 357 173
l354 178 -55 8 c-30 4 -71 10 -90 14 l-35 6 68 34 c101 52 92 76 -38 94 -49 7
-92 15 -94 16 -3 3 451 644 677 958 l35 48 -61 -7 c-34 -4 -62 -4 -62 0 0 4
16 29 35 55 39 53 44 77 18 87 -9 4 -145 -1 -300 -11 -156 -10 -286 -16 -289
-14 -3 3 151 169 342 368 l347 363 -49 -7 c-27 -4 -65 -10 -84 -13 l-35 -6 58
62 c42 44 57 67 55 83 -4 27 -19 29 -108 16z"/>
<path d="M6080 2281 c-96 -30 -163 -106 -176 -203 -13 -95 42 -194 131 -234
29 -14 59 -32 67 -41 21 -26 89 -53 133 -53 105 0 205 100 205 205 0 40 -22
96 -49 128 -15 17 -33 47 -41 65 -21 52 -102 119 -161 131 -56 12 -73 13 -109
2z"/>
<path d="M1792 2263 c-34 -30 -586 -846 -586 -868 -1 -15 5 -20 23 -20 21 0
68 63 318 430 161 236 293 434 293 441 0 6 -6 17 -14 23 -10 9 -18 7 -34 -6z"/>
<path d="M1787 2118 c-257 -372 -521 -766 -525 -785 -6 -31 24 -42 48 -17 14
15 557 807 584 852 9 15 -10 42 -29 42 -8 0 -42 -42 -78 -92z"/>
<path d="M5313 2180 c-114 -65 -152 -203 -88 -315 27 -48 48 -67 103 -97 22
-13 60 -36 83 -53 38 -27 50 -30 115 -30 64 0 77 3 115 30 58 41 84 94 84 171
0 51 -5 68 -30 104 -17 23 -38 59 -48 79 -68 131 -214 180 -334 111z"/>
<path d="M6700 2171 c-94 -29 -161 -104 -176 -199 -14 -91 52 -208 137 -242
18 -7 49 -26 66 -41 32 -27 88 -49 128 -49 66 0 150 51 180 110 36 70 27 163
-23 223 -15 17 -38 54 -51 80 -46 91 -168 146 -261 118z"/>
<path d="M4240 2130 c-11 -11 -20 -27 -20 -35 0 -8 -5 -26 -12 -40 -14 -31
-45 -33 -90 -5 -45 27 -73 25 -97 -6 -34 -43 -28 -80 19 -112 26 -18 37 -32
33 -42 -3 -8 -6 -23 -7 -33 -1 -9 -14 -30 -29 -45 -32 -34 -34 -60 -6 -96 24
-31 72 -35 102 -8 19 16 20 16 9 -4 -6 -12 -23 -29 -37 -38 -28 -19 -33 -57
-10 -76 17 -14 28 -10 91 30 45 29 86 13 113 -46 24 -51 40 -61 71 -44 19 10
21 17 14 43 -24 96 2 147 76 147 45 0 65 20 56 55 -6 22 -12 25 -54 25 -64 0
-86 15 -32 23 54 7 80 31 80 74 0 49 -29 73 -89 73 -64 0 -73 12 -65 87 6 55
5 61 -17 77 -32 22 -75 20 -99 -4z"/>
<path d="M3326 2039 c-31 -25 -33 -56 -6 -109 25 -50 18 -67 -34 -81 -55 -16
-90 -53 -81 -88 13 -51 34 -64 97 -57 69 8 85 -7 23 -23 -50 -13 -59 -23 -51
-55 7 -30 24 -36 69 -26 32 7 36 5 42 -17 3 -15 17 -28 35 -34 26 -9 29 -16
32 -57 3 -45 5 -47 35 -50 34 -3 36 -1 48 70 10 63 58 83 130 53 29 -13 40
-13 51 -4 23 19 13 62 -18 77 l-26 12 29 29 c36 36 37 70 4 101 -14 13 -23 30
-20 38 6 17 -22 52 -42 52 -19 0 -16 8 12 42 38 45 30 89 -22 116 -27 15 -48
7 -96 -35 -42 -38 -63 -34 -94 15 -35 57 -72 67 -117 31z"/>
<path d="M2599 2015 c-37 -20 -42 -50 -17 -108 26 -60 19 -77 -43 -94 -24 -7
-50 -21 -56 -30 -20 -26 -15 -71 8 -94 19 -19 28 -21 80 -15 38 5 59 3 59 -3
0 -6 -12 -13 -27 -16 -43 -9 -58 -20 -61 -44 -6 -36 13 -49 62 -44 38 5 44 3
49 -16 3 -13 19 -27 37 -34 27 -10 30 -15 25 -39 -10 -45 2 -68 36 -68 31 0
49 27 49 74 0 28 39 66 67 66 11 0 37 -7 56 -15 44 -18 42 -18 61 1 27 26 19
52 -21 73 -22 12 -31 20 -21 21 23 0 51 43 51 77 0 16 -10 34 -24 46 -14 11
-23 27 -21 39 4 25 -15 48 -40 48 -18 0 -18 2 5 30 36 42 42 67 22 96 -24 37
-60 47 -96 29 -16 -9 -29 -20 -29 -25 0 -17 -48 -42 -64 -33 -8 4 -28 27 -45
51 -34 46 -57 52 -102 27z"/>
<path d="M657 1967 c-14 -12 -564 -813 -584 -852 -14 -27 -6 -45 20 -45 18 0
81 87 315 430 160 236 292 438 292 448 0 25 -23 35 -43 19z"/>
<path d="M1092 1728 c-87 -128 -220 -323 -296 -433 -75 -110 -136 -208 -136
-218 0 -26 29 -33 50 -11 15 15 458 660 565 821 23 35 25 46 15 58 -7 8 -18
15 -26 15 -7 0 -85 -105 -172 -232z"/>
<path d="M417 1475 c-165 -241 -297 -444 -295 -453 2 -9 13 -18 24 -20 17 -2
72 72 318 433 168 246 296 443 294 453 -2 9 -12 18 -23 20 -17 2 -76 -78 -318
-433z"/>
<path d="M1019 1474 c-156 -229 -290 -428 -298 -442 -12 -22 -11 -27 4 -38 9
-7 22 -11 28 -8 20 8 597 862 597 883 0 15 -6 21 -23 21 -20 0 -71 -69 -308
-416z"/>
<path d="M5790 1766 c-166 -84 -165 -327 2 -412 29 -15 70 -41 91 -58 36 -28
45 -31 112 -31 65 0 78 3 116 30 98 70 117 209 39 298 -15 18 -31 43 -35 56
-10 34 -73 100 -116 122 -55 27 -150 25 -209 -5z"/>
<path d="M5106 1705 c-87 -31 -145 -119 -146 -219 0 -96 39 -160 127 -208 23
-13 61 -36 83 -53 57 -40 147 -47 207 -16 111 56 146 192 77 292 -16 23 -39
61 -51 84 -26 52 -95 112 -142 125 -49 14 -109 12 -155 -5z"/>
<path d="M6471 1679 c-169 -33 -240 -233 -134 -375 13 -17 50 -46 83 -63 33
-18 62 -37 66 -42 12 -20 89 -49 130 -49 147 -1 246 152 185 285 -10 22 -25
46 -33 53 -9 7 -28 37 -42 66 -30 61 -91 110 -157 125 -24 6 -46 10 -49 10 -3
-1 -25 -5 -49 -10z"/>
<path d="M405 1174 c-232 -339 -296 -440 -288 -452 12 -19 25 -24 39 -14 24
16 595 866 592 881 -2 9 -13 17 -24 19 -18 3 -69 -66 -319 -434z"/>
<path d="M1597 1453 c-394 -575 -491 -721 -495 -740 -5 -27 21 -41 43 -23 12
10 560 808 588 857 11 18 -3 43 -23 43 -13 0 -50 -45 -113 -137z"/>
<path d="M465 1115 c-173 -254 -295 -442 -293 -453 2 -10 12 -17 25 -17 18 0
78 82 308 419 158 231 291 428 296 439 11 20 -4 47 -26 47 -7 0 -147 -196
-310 -435z"/>
<path d="M1747 1517 c-14 -11 -564 -815 -586 -856 -8 -15 -7 -23 4 -35 9 -8
21 -13 28 -10 20 7 597 861 597 882 0 25 -23 35 -43 19z"/>
<path d="M3834 1416 c-11 -8 -26 -32 -32 -54 -20 -64 -34 -70 -97 -38 -59 30
-79 27 -109 -16 -26 -37 -19 -64 23 -99 35 -28 39 -35 34 -63 -3 -17 -19 -44
-34 -60 -36 -35 -36 -56 -3 -95 29 -35 53 -39 92 -14 23 14 21 10 -10 -23 -40
-42 -46 -62 -26 -82 18 -18 41 -15 78 13 19 14 46 25 60 25 29 0 64 -32 74
-67 10 -32 32 -46 61 -39 28 7 34 41 14 78 -8 16 -8 31 1 59 13 40 34 51 110
61 17 2 26 10 28 26 5 37 -15 52 -69 52 -26 0 -51 5 -54 10 -4 6 8 10 30 10
69 0 105 42 84 97 -14 36 -25 43 -80 43 -63 0 -85 23 -70 77 15 54 14 61 -14
88 -27 28 -61 32 -91 11z"/>
<path d="M2973 1345 c-38 -16 -47 -42 -34 -92 14 -49 14 -49 -5 -67 -10 -10
-33 -16 -63 -16 -58 0 -81 -21 -81 -72 0 -43 25 -68 67 -68 17 0 39 -3 48 -7
14 -5 10 -9 -16 -17 -28 -9 -34 -16 -34 -40 0 -23 6 -31 30 -40 21 -8 30 -16
27 -28 -4 -23 41 -68 69 -68 16 0 19 -4 14 -17 -19 -45 -17 -69 8 -80 31 -14
46 -4 71 49 33 69 64 73 148 20 53 -33 90 23 45 67 l-25 22 24 24 c26 26 30
46 13 77 -9 16 -7 24 12 44 21 22 21 24 5 49 -19 29 -33 31 -64 9 -40 -28 -23
3 23 40 51 42 57 68 24 110 -25 32 -58 33 -111 4 -48 -27 -66 -19 -88 40 -24
65 -53 80 -107 57z"/>
<path d="M2256 1307 c-13 -9 -20 -31 -24 -68 -6 -75 -12 -79 -86 -72 -58 5
-64 4 -80 -18 -35 -51 -9 -110 56 -123 27 -5 29 -8 16 -19 -27 -21 -31 -54 -9
-69 14 -10 17 -18 10 -28 -5 -8 -9 -23 -9 -33 0 -27 45 -67 76 -67 26 0 26 -1
10 -25 -23 -35 -20 -60 9 -73 27 -12 29 -11 82 52 32 39 77 35 119 -9 34 -36
61 -44 82 -23 17 17 15 35 -10 68 -21 29 -21 30 -3 50 10 11 18 34 17 50 -1
26 5 34 34 47 37 18 46 51 19 73 -12 10 -24 10 -54 1 -47 -14 -54 -14 -45 0 3
6 26 19 50 30 67 28 78 90 23 131 -24 18 -28 18 -72 3 -59 -20 -87 -8 -87 35
0 35 -17 82 -33 92 -19 12 -72 9 -91 -5z"/>
<path d="M1118 1288 c-30 -25 -582 -843 -586 -871 -4 -23 -1 -27 19 -27 20 0
66 62 284 381 361 530 340 496 325 514 -15 18 -22 19 -42 3z"/>
<path d="M5565 1281 c-121 -56 -169 -198 -109 -320 26 -51 91 -111 120 -111 7
0 28 -13 47 -30 44 -38 77 -50 138 -50 112 0 199 89 199 202 0 47 -27 115 -54
137 -9 8 -24 31 -32 50 -35 84 -121 141 -214 141 -33 0 -71 -8 -95 -19z"/>
<path d="M890 814 c-157 -229 -291 -428 -298 -442 -12 -21 -12 -27 0 -39 8 -7
21 -11 29 -8 22 9 601 864 597 883 -2 9 -12 18 -23 20 -17 2 -74 -75 -305
-414z"/>
<path d="M4876 1215 c-90 -32 -155 -119 -156 -209 0 -101 42 -172 132 -224 25
-15 68 -40 95 -57 133 -83 303 12 303 169 0 50 -27 127 -49 140 -6 4 -22 29
-36 56 -57 113 -177 165 -289 125z"/>
<path d="M6185 1171 c-121 -56 -169 -198 -109 -319 24 -48 94 -112 122 -112 5
0 30 -17 56 -37 133 -104 326 -11 326 157 0 49 -27 121 -50 135 -6 4 -22 29
-36 57 -30 60 -64 94 -119 119 -52 24 -138 24 -190 0z"/>
<path d="M5324 786 c-186 -86 -176 -349 17 -430 19 -8 43 -24 53 -35 26 -28
111 -53 156 -45 54 10 107 43 137 87 38 54 44 146 14 205 -11 22 -25 44 -31
47 -6 4 -21 27 -34 53 -64 125 -192 174 -312 118z"/>
<path d="M5944 676 c-121 -56 -168 -194 -108 -315 25 -50 90 -111 119 -111 6
0 33 -17 60 -37 43 -34 54 -38 119 -41 63 -3 75 0 111 23 62 41 88 86 93 160
3 48 0 70 -17 103 -11 22 -26 44 -32 47 -6 4 -19 26 -29 49 -53 125 -194 179
-316 122z"/>
<path d="M3280 683 c-26 -10 -60 -46 -60 -64 0 -10 10 -39 22 -63 21 -44 21
-46 3 -66 -10 -11 -27 -20 -37 -20 -22 0 -60 -18 -70 -34 -4 -6 -8 -24 -8 -41
0 -56 31 -75 109 -68 60 7 66 -10 7 -21 -47 -9 -62 -29 -47 -62 11 -24 15 -26
56 -20 41 7 44 5 57 -21 7 -16 23 -29 35 -31 18 -3 22 -11 25 -49 6 -87 64
-85 83 2 7 33 18 54 37 68 26 19 29 19 70 4 60 -23 76 -21 90 9 11 23 10 29
-11 45 -13 11 -30 19 -38 19 -10 0 -4 10 16 29 39 37 42 81 7 109 -17 13 -23
26 -20 39 6 21 -31 57 -48 47 -18 -11 -6 14 17 36 33 31 33 79 2 108 -34 32
-67 28 -107 -13 -39 -40 -63 -44 -88 -13 -31 40 -70 78 -79 77 -4 0 -15 -3
-23 -6z"/>
<path d="M2646 608 c-8 -13 -17 -34 -21 -48 -16 -55 -48 -64 -100 -30 -16 11
-40 20 -52 20 -23 0 -73 -52 -73 -78 0 -8 20 -35 45 -58 27 -24 41 -45 35 -49
-5 -3 -10 -16 -10 -27 0 -11 -11 -31 -25 -44 -47 -43 -23 -124 36 -124 17 0
40 5 52 11 14 7 7 -4 -18 -30 -32 -33 -37 -45 -29 -58 23 -36 40 -38 80 -8 64
49 112 36 145 -42 20 -46 45 -56 73 -27 19 19 19 13 1 63 -9 27 -11 48 -5 59
4 9 11 25 14 34 3 10 20 19 43 23 85 14 84 13 81 48 -3 30 -6 32 -43 35 -22 1
-51 5 -65 9 -21 5 -16 8 25 14 78 12 109 68 66 120 -15 18 -32 25 -77 29 l-59
5 0 73 c0 61 -3 76 -19 88 -31 22 -83 18 -100 -8z"/>
</g>
</svg>
