<!-- icon666.com - MILLIONS vector ICONS FREE --><svg version="1.1" id="Capa_1" xmlns="http://www.w3.org/2000/svg" xmlns:xlink="http://www.w3.org/1999/xlink" x="0px" y="0px" viewBox="0 0 53.947 53.947" style="enable-background:new 0 0 53.947 53.947;" xml:space="preserve"><g><path style="fill: rgb(23, 229, 232);" d="M52.76,23.05l-0.007,0.001c-1.745-6.137-5.596-9.252-11.146-9.252c-1.759,0-3.418,0.412-4.903,1.126 c-2.609-3.261-6.614-5.354-11.117-5.354c-4.992,0-9.378,2.574-11.921,6.462c-0.031-0.001-0.062-0.01-0.094-0.01 c-4.301,0-7.787,3.487-7.787,7.788c0,0.54,0.055,1.068,0.159,1.577C2.537,26.219,0,29.271,0,32.933 c0,0.717,0.128,1.398,0.309,2.057c0.007,0.056,0.004,0.107,0.015,0.163c1.547,9.647,20.042,9.304,26.153,9.188 c6.675-0.127,22.354-1.211,26.405-9.554C55.347,29.707,52.76,23.05,52.76,23.05z" fill="#010002"></path></g></svg>