<!-- icon666.com - MILLIONS vector ICONS FREE --><svg version="1.1" id="Layer_1" xmlns="http://www.w3.org/2000/svg" xmlns:xlink="http://www.w3.org/1999/xlink" x="0px" y="0px" viewBox="0 0 512 512" style="enable-background:new 0 0 512 512;" xml:space="preserve"><g><g><path d="M293.777,0c-20.621,0-37.398,16.777-37.398,37.399c0,20.621,16.777,37.398,37.398,37.398 c20.621,0,37.398-16.777,37.398-37.398C331.175,16.777,314.398,0,293.777,0z M293.777,55.394c-9.923,0-17.995-8.072-17.995-17.995 c0-9.924,8.072-17.996,17.995-17.996s17.995,8.072,17.995,17.996C311.771,47.322,303.699,55.394,293.777,55.394z" fill="#000000" style="fill: rgb(255, 255, 255);"></path></g></g><g><g><path d="M229.217,334.338V63.924C229.217,28.676,200.541,0,165.293,0s-63.924,28.676-63.924,63.924v270.413 c-23.197,19.138-36.409,47.045-36.409,77.33C64.96,466.991,109.969,512,165.293,512s100.333-45.009,100.333-100.333 C265.625,381.383,252.415,353.476,229.217,334.338z M165.293,492.596c-44.625,0-80.929-36.305-80.929-80.929 c0-25.763,11.85-49.402,32.513-64.856c2.546-1.904,3.878-4.818,3.881-7.769h0.016V63.924 c-0.001-24.548,19.971-44.521,44.519-44.521s44.521,19.972,44.521,44.521v275.117h0.016c0.002,2.952,1.335,5.865,3.881,7.769 c20.662,15.454,32.512,39.091,32.512,64.856C246.222,456.291,209.918,492.596,165.293,492.596z" fill="#000000" style="fill: rgb(255, 255, 255);"></path></g></g><g><g><path d="M191.3,356.153V194.23c0-5.358-4.344-9.702-9.702-9.702h-32.61c-5.358,0-9.702,4.344-9.702,9.702v161.924 c-21.24,9.984-35.121,31.474-35.121,55.325c0,33.707,27.422,61.128,61.129,61.128c33.705,0,61.128-27.421,61.128-61.128 C226.422,387.627,212.539,366.138,191.3,356.153z" fill="#000000" style="fill: rgb(255, 255, 255);"></path></g></g><g><g><path d="M376.321,61.853c-38.994,0-70.719,31.725-70.719,70.719v166.196c0,5.358,4.344,9.702,9.702,9.702s9.702-4.344,9.702-9.702 v-94.239h68.881c5.358,0,9.702-4.344,9.702-9.702s-4.344-9.702-9.702-9.702h-68.881v-52.554c0-28.295,23.02-51.315,51.315-51.315 s51.315,23.02,51.315,51.315c0,5.358,4.344,9.702,9.702,9.702c5.358,0,9.702-4.344,9.702-9.702 C447.04,93.578,415.315,61.853,376.321,61.853z" fill="#000000" style="fill: rgb(255, 255, 255);"></path></g></g></svg>