<!-- icon666.com - MILLIONS vector ICONS FREE --><svg id="Capa_1" enable-background="new 0 0 512 512" viewBox="0 0 512 512" xmlns="http://www.w3.org/2000/svg"><g><path d="m182.418 295.416v-225.416c0-33.137-26.863-60-60-60s-60 26.863-60 60v225.416c-31.257 19.87-52 54.803-52 94.584 0 61.856 50.144 112 112 112s112-50.144 112-112c0-39.781-20.743-74.715-52-94.584z" fill="#fff"></path><path d="m145.309 334.768v-210.294c0-5.588-4.53-10.118-10.118-10.118h-25.547c-5.588 0-10.118 4.53-10.118 10.118v210.293c-21.666 8.99-36.904 30.347-36.89 55.268.019 32.925 27.873 60.284 60.794 59.737 32.549-.541 58.768-27.095 58.768-59.773.001-24.905-15.233-46.246-36.889-55.231z" fill="#ff9eb1"></path><g><circle cx="384.418" cy="127.164" fill="#ffda8f" r="45.164"></circle></g><g fill="#ff5d7d"><path d="m192.418 290.07v-220.07c0-38.598-31.402-70-70-70-35.202 0-64.406 26.124-69.275 60h-19.63c-5.523 0-10 4.478-10 10s4.477 10 10 10h18.905v24.356h-18.905c-5.523 0-10 4.478-10 10s4.477 10 10 10h18.905v24.356h-18.905c-5.523 0-10 4.478-10 10s4.477 10 10 10h18.905v24.356h-18.905c-5.523 0-10 4.478-10 10s4.477 10 10 10h18.905v24.356h-18.905c-5.523 0-10 4.478-10 10s4.477 10 10 10h18.905v32.645c-32.665 22.874-52 59.824-52 99.93 0 67.271 54.729 122 122 122s122-54.729 122-122c0-40.104-19.335-77.055-52-99.929zm-70 201.93c-56.243 0-102-45.757-102-102 0-35.089 17.707-67.292 47.365-86.145 2.887-1.835 4.635-5.019 4.635-8.439v-225.416c0-27.57 22.43-50 50-50s50 22.43 50 50v225.416c0 3.421 1.749 6.604 4.635 8.439 29.658 18.853 47.365 51.056 47.365 86.145 0 56.243-45.757 102-102 102z"></path><path d="m384.418 72c-30.417 0-55.164 24.746-55.164 55.164s24.747 55.165 55.164 55.165c30.418 0 55.165-24.747 55.165-55.165s-24.747-55.164-55.165-55.164zm0 90.329c-19.39 0-35.164-15.775-35.164-35.165s15.774-35.164 35.164-35.164 35.165 15.774 35.165 35.164-15.776 35.165-35.165 35.165z"></path><path d="m501.582 117.164h-32c-5.523 0-10 4.478-10 10s4.477 10 10 10h32c5.523 0 10-4.478 10-10s-4.477-10-10-10z"></path><path d="m309.254 127.164c0-5.522-4.477-10-10-10h-32c-5.523 0-10 4.478-10 10s4.477 10 10 10h32c5.523 0 10-4.477 10-10z"></path><path d="m384.418 202.329c-5.523 0-10 4.478-10 10v32c0 5.522 4.477 10 10 10s10-4.478 10-10v-32c0-5.522-4.477-10-10-10z"></path><path d="m384.418 52c5.523 0 10-4.478 10-10v-32c0-5.522-4.477-10-10-10s-10 4.478-10 10v32c0 5.522 4.477 10 10 10z"></path><path d="m451.709 180.313c-3.905-3.904-10.237-3.904-14.142 0-3.905 3.905-3.905 10.237 0 14.143l22.627 22.627c1.953 1.952 4.512 2.929 7.071 2.929s5.119-.977 7.071-2.929c3.905-3.905 3.905-10.237 0-14.143z"></path><path d="m317.126 74.016c1.953 1.952 4.512 2.929 7.071 2.929s5.119-.977 7.071-2.929c3.905-3.905 3.906-10.237 0-14.143l-22.627-22.628c-3.905-3.903-10.237-3.903-14.142 0-3.905 3.905-3.906 10.237 0 14.143z"></path><path d="m317.127 180.313-22.627 22.627c-3.905 3.905-3.906 10.237 0 14.143 1.953 1.952 4.512 2.929 7.071 2.929s5.119-.977 7.071-2.929l22.627-22.627c3.905-3.905 3.906-10.237 0-14.143-3.906-3.903-10.238-3.903-14.142 0z"></path><path d="m444.638 76.944c2.559 0 5.119-.977 7.071-2.929l22.627-22.628c3.905-3.905 3.905-10.237 0-14.143-3.905-3.904-10.237-3.904-14.142 0l-22.627 22.628c-3.905 3.905-3.905 10.237 0 14.143 1.953 1.953 4.512 2.929 7.071 2.929z"></path></g></g></svg>