<!-- icon666.com - MILLIONS vector ICONS FREE --><svg id="Capa_1" enable-background="new 0 0 512 512" viewBox="0 0 512 512" xmlns="http://www.w3.org/2000/svg" xmlns:xlink="http://www.w3.org/1999/xlink"><linearGradient id="SVGID_1_" gradientUnits="userSpaceOnUse" x1="256" x2="256" y1="466" y2="46"><stop offset="0" stop-color="#a93aff"></stop><stop offset="1" stop-color="#ff81ff"></stop></linearGradient><g><g><g><path d="m106 136h30c8.284 0 15-6.716 15-15v-30c0-24.813-20.187-45-45-45h-30c-8.284 0-15 6.716-15 15v30c0 24.813 20.187 45 45 45zm-15-60h15c8.271 0 15 6.729 15 15v15h-15c-8.271 0-15-6.729-15-15zm286 120c8.284 0 15-6.716 15-15 0-5.216.902-10.222 2.541-14.885 15.356 1.296 27.459 14.199 27.459 29.885 0 16.542-13.458 30-30 30h-135c-8.284 0-15 6.716-15 15s6.716 15 15 15h180c41.355 0 75-33.645 75-75s-33.645-75-75-75c-41.33 0-75 33.667-75 75 0 8.284 6.716 15 15 15zm60-60c24.813 0 45 20.187 45 45 0 22.337-16.362 40.917-37.729 44.404 4.911-8.696 7.729-18.725 7.729-29.404 0-24.476-14.739-45.562-35.801-54.885 6.227-3.26 13.299-5.115 20.801-5.115zm-422 120h181c8.284 0 15-6.716 15-15s-6.716-15-15-15h-181c-8.284 0-15 6.716-15 15s6.716 15 15 15zm286 30h-225c-8.284 0-15 6.716-15 15s6.716 15 15 15h180c24.813 0 45 20.187 45 45s-20.187 45-45 45c-2.452 0-4.882-.219-7.278-.607-4.907-8.694-7.722-18.718-7.722-29.393 0-4.05.404-8.093 1.2-12.016 1.648-8.119-3.597-16.037-11.716-17.685-8.125-1.648-16.037 3.598-17.685 11.716-1.194 5.883-1.8 11.934-1.8 17.984 0 49.515 40.258 90 90 90 49.626 0 90-40.374 90-90s-40.373-89.999-89.999-89.999zm0 150c-7.468 0-14.617-1.383-21.218-3.888 29.729-9.969 51.218-38.069 51.218-71.112 0-15.827-4.941-30.515-13.343-42.629 25.003 7.238 43.343 30.325 43.343 57.629 0 33.084-26.916 60-60 60zm166-150h-30c-8.284 0-15 6.716-15 15v30c0 24.813 20.187 45 45 45h30c8.284 0 15-6.716 15-15v-30c0-24.813-20.187-45-45-45zm15 60h-15c-8.271 0-15-6.729-15-15v-15h15c8.271 0 15 6.729 15 15zm-406-150h195c33.084 0 60-26.916 60-60s-26.916-60-60-60c-25.42 0-48.144 16.127-56.582 40.001-2.761 7.811 1.333 16.381 9.144 19.141 6.261 2.213 13.003.014 16.856-4.966.378 1.905.582 3.853.582 5.824 0 16.542-13.458 30-30 30h-135c-8.284 0-15 6.716-15 15s6.716 15 15 15zm187.482-89.024c2.421-.628 4.939-.976 7.518-.976 16.542 0 30 13.458 30 30s-13.458 30-30 30h-8.072c5.123-8.833 8.072-19.075 8.072-30 0-10.25-2.653-20.223-7.518-29.024zm-97.482 239.024h-151c-8.284 0-15 6.716-15 15s6.716 15 15 15h151c8.284 0 15-6.716 15-15s-6.716-15-15-15z" fill="url(#SVGID_1_)"></path></g></g></g></svg>